<?xml version="1.0" encoding="UTF-8"?>
<svg width="64px" height="79px" viewBox="0 0 64 79" version="1.1" xmlns="http://www.w3.org/2000/svg" xmlns:xlink="http://www.w3.org/1999/xlink">
    <!-- Generator: Sketch 53.1 (72631) - https://sketchapp.com -->
    <title>Icon - Agriculture</title>
    <desc>Created with Sketch.</desc>
    <g id="Vision-2050" stroke="none" stroke-width="1" fill="none" fill-rule="evenodd">
        <g id="T---Vision-2050---2C" transform="translate(-352.000000, -801.000000)" fill="#3C3C3C">
            <g id="2-Globe">
                <g id="Icons" transform="translate(83.000000, 747.000000)">
                    <g id="Agriculture" transform="translate(207.000000, 0.000000)">
                        <g id="Icon---Agriculture" transform="translate(62.000000, 53.000000)">
                            <path d="M29.85696,18.0725333 C29.8750933,22.8736 32.37536,24.6282667 32.37536,24.6282667 C32.37536,24.6282667 34.8756267,22.8736 34.89376,18.0725333 L34.8958933,18.0725333 C34.8958933,18.064 34.8948267,18.0565333 34.8948267,18.048 C34.8948267,18.0394667 34.8958933,18.0309333 34.8958933,18.0234667 L34.89376,18.0234667 C34.8830933,14.9653333 33.8654933,13.1477333 33.12736,12.2272 C33.17216,11.2896 33.2564267,10.352 33.4078933,9.42613333 C33.6692267,7.88266667 34.02016,6.3296 34.6814933,4.896 C35.33536,3.46453333 36.2388267,2.13226667 37.4548267,1.06666667 C36.13216,1.98826667 35.04736,3.2448 34.2078933,4.65173333 C33.3588267,6.0608 32.8158933,7.6256 32.36576,9.20213333 C32.1012267,10.1461333 31.9060267,11.1061333 31.75136,12.0725333 C31.0100267,12.9365333 29.86976,14.784 29.85696,18.0234667 L29.8558933,18.0234667 L29.8558933,18.048 L29.8558933,18.0725333 L29.85696,18.0725333 Z" id="Fill-1"></path>
                            <path d="M25.4549333,26.1349333 C25.4602667,26.1413333 25.4645333,26.1477333 25.4698667,26.1552 C25.4752,26.1616 25.4773333,26.1690667 25.4826667,26.1754667 L25.4837333,26.1754667 C28.2122667,30.1221333 31.2650667,30.1488 31.2650667,30.1488 C31.2650667,30.1488 32.3338667,27.2848 29.6352,23.3168 L29.6373333,23.3157333 C29.632,23.3093333 29.6266667,23.3029333 29.6224,23.2965333 C29.6170667,23.2890667 29.6128,23.2826667 29.6096,23.2752 L29.6074667,23.2762667 C26.8789333,19.3296 23.8272,19.3018667 23.8272,19.3018667 C23.8272,19.3018667 22.7573333,22.1669333 25.456,26.1338667 L25.4549333,26.1349333 Z" id="Fill-4"></path>
                            <path d="M25.4549333,35.4552533 C25.4602667,35.46272 25.4645333,35.46912 25.4698667,35.47552 C25.4752,35.48192 25.4773333,35.4893867 25.4826667,35.4957867 L25.4837333,35.4957867 C28.2122667,39.4413867 31.2650667,39.4701867 31.2650667,39.4701867 C31.2650667,39.4701867 32.3338667,36.6040533 29.6352,32.63712 L29.6373333,32.6360533 C29.632,32.6296533 29.6266667,32.62432 29.6224,32.6168533 C29.6170667,32.6093867 29.6128,32.6029867 29.6096,32.59552 L29.6074667,32.5965867 C26.8789333,28.64992 23.8272,28.6232533 23.8272,28.6232533 C23.8272,28.6232533 22.7573333,31.4872533 25.456,35.4541867 L25.4549333,35.4552533 Z" id="Fill-6"></path>
                            <path d="M34.2423467,26.6136533 L34.24128,26.6125867 C34.2359467,26.6200533 34.2327467,26.6264533 34.2274133,26.63392 C34.22208,26.64032 34.21888,26.6456533 34.2135467,26.65312 L34.2146133,26.6541867 C31.51488,30.62112 32.58368,33.4861867 32.58368,33.4861867 C32.58368,33.4861867 35.6375467,33.4584533 38.3650133,29.5128533 L38.36608,29.5128533 C38.3714133,29.5064533 38.37568,29.4989867 38.3799467,29.49152 C38.38528,29.48512 38.3906133,29.4797867 38.39488,29.47232 L38.3938133,29.4712533 C41.09248,25.50432 40.02368,22.6392533 40.02368,22.6392533 C40.02368,22.6392533 36.97088,22.6669867 34.2423467,26.6136533" id="Fill-8"></path>
                            <path d="M34.2423467,35.9345067 L34.24128,35.93344 C34.2359467,35.93984 34.2327467,35.9473067 34.2274133,35.9547733 C34.22208,35.9611733 34.21888,35.9665067 34.2135467,35.9739733 L34.2146133,35.97504 C31.51488,39.9419733 32.58368,42.8059733 32.58368,42.8059733 C32.58368,42.8059733 35.6375467,42.7793067 38.3650133,38.83264 L38.36608,38.8337067 C38.3714133,38.82624 38.37568,38.81984 38.3799467,38.8123733 C38.38528,38.8049067 38.3906133,38.80064 38.39488,38.7931733 L38.3938133,38.7921067 C41.09248,34.8251733 40.02368,31.95904 40.02368,31.95904 C40.02368,31.95904 36.97088,31.98784 34.2423467,35.9345067" id="Fill-10"></path>
                            <path d="M25.4549333,44.9303467 C25.4602667,44.9378133 25.4645333,44.9431467 25.4698667,44.9506133 C25.4752,44.9570133 25.4773333,44.9634133 25.4826667,44.97088 L25.4837333,44.9698133 C28.2122667,48.91648 31.2650667,48.94528 31.2650667,48.94528 C31.2650667,48.94528 32.3338667,46.0791467 29.6352,42.1122133 L29.6373333,42.1111467 C29.632,42.1047467 29.6266667,42.0994133 29.6224,42.0919467 C29.6170667,42.08448 29.6128,42.0770133 29.6096,42.0706133 L29.6074667,42.07168 C26.8789333,38.1250133 23.8272,38.09728 23.8272,38.09728 C23.8272,38.09728 22.7573333,40.9623467 25.456,44.92928 L25.4549333,44.9303467 Z" id="Fill-12"></path>
                            <path d="M25.4549333,54.2510933 C25.4602667,54.2574933 25.4645333,54.2638933 25.4698667,54.27136 C25.4752,54.27776 25.4773333,54.28416 25.4826667,54.2916267 L25.4837333,54.29056 C28.2122667,58.2372267 31.2650667,58.26496 31.2650667,58.26496 C31.2650667,58.26496 32.3338667,55.3998933 29.6352,51.43296 L29.6373333,51.4318933 C29.632,51.4254933 29.6266667,51.4190933 29.6224,51.4126933 C29.6170667,51.4052267 29.6128,51.39776 29.6096,51.3902933 L29.6074667,51.39136 C26.8789333,47.44576 23.8272,47.4180267 23.8272,47.4180267 C23.8272,47.4180267 22.7573333,50.2830933 25.456,54.2500267 L25.4549333,54.2510933 Z" id="Fill-14"></path>
                            <path d="M34.2423467,45.4084267 L34.24128,45.40736 C34.2359467,45.4148267 34.2327467,45.4222933 34.2274133,45.42976 C34.22208,45.4350933 34.21888,45.4414933 34.2135467,45.44896 L34.2146133,45.4500267 C31.51488,49.41696 32.58368,52.28096 32.58368,52.28096 C32.58368,52.28096 35.6375467,52.2542933 38.3650133,48.3076267 L38.36608,48.3086933 C38.3714133,48.3012267 38.37568,48.2948267 38.3799467,48.28736 C38.38528,48.2798933 38.3906133,48.27456 38.39488,48.26816 L38.3938133,48.2670933 C41.09248,44.30016 40.02368,41.4340267 40.02368,41.4340267 C40.02368,41.4340267 36.97088,41.4628267 34.2423467,45.4084267" id="Fill-16"></path>
                            <path d="M34.2423467,54.72928 L34.24128,54.7282133 C34.2359467,54.73568 34.2327467,54.74208 34.2274133,54.7495467 C34.22208,54.7559467 34.21888,54.7623467 34.2135467,54.7687467 L34.2146133,54.7698133 C31.51488,58.7378133 32.58368,61.6018133 32.58368,61.6018133 C32.58368,61.6018133 35.6375467,61.5751467 38.3650133,57.62848 L38.36608,57.6295467 C38.3714133,57.62208 38.37568,57.6146133 38.3799467,57.6082133 C38.38528,57.6007467 38.3906133,57.5954133 38.39488,57.5879467 L38.3938133,57.58688 C41.09248,53.6199467 40.02368,50.75488 40.02368,50.75488 C40.02368,50.75488 36.97088,50.7826133 34.2423467,54.72928" id="Fill-18"></path>
                            <path d="M29.6350933,60.9074133 L29.6372267,60.9063467 C29.6318933,60.8999467 29.62656,60.8935467 29.6222933,60.88608 C29.61696,60.87968 29.6126933,60.87328 29.6094933,60.8658133 L29.60736,60.86688 C26.8788267,56.9202133 23.8270933,56.89248 23.8270933,56.89248 C23.8270933,56.89248 22.7572267,59.7575467 25.4558933,63.7255467 L25.4548267,63.7255467 C25.46016,63.7319467 25.4644267,63.7383467 25.46976,63.7458133 C25.4750933,63.7522133 25.4782933,63.75968 25.48256,63.7671467 L25.4836267,63.76608 C28.21216,67.7127467 31.26496,67.7394133 31.26496,67.7394133 C31.26496,67.7394133 32.33376,64.8754133 29.6350933,60.9074133" id="Fill-20"></path>
                            <path d="M40.02368,60.2302933 C40.02368,60.2302933 36.97088,60.25696 34.2423467,64.2046933 L34.24128,64.2036267 C34.2359467,64.2100267 34.2327467,64.2164267 34.2274133,64.2238933 C34.2231467,64.23136 34.21888,64.2366933 34.2135467,64.24416 L34.2146133,64.2452267 C33.3751467,65.4782933 32.90048,66.60576 32.64448,67.57216 C31.77728,69.3054933 31.07328,71.8110933 31.07328,75.4206933 L31.07328,79.81216 L33.2066133,79.81216 L33.2066133,75.4206933 C33.2066133,73.5700267 33.4114133,72.0734933 33.71648,70.85216 C34.8514133,70.4926933 36.67008,69.5540267 38.3650133,67.10176 L38.36608,67.1028267 C38.3714133,67.0964267 38.37568,67.0900267 38.3799467,67.08256 C38.38528,67.0750933 38.3906133,67.06976 38.39488,67.0622933 L38.3938133,67.0612267 C41.09248,63.09536 40.02368,60.2302933 40.02368,60.2302933" id="Fill-22"></path>
                            <path d="M10.62464,32.7511467 L10.6235733,32.75008 C10.61824,32.7575467 10.61504,32.7639467 10.6097067,32.7714133 C10.60544,32.7778133 10.6011733,32.7831467 10.59584,32.7906133 L10.5969067,32.79168 C7.89717333,36.7586133 8.96704,39.62368 8.96704,39.62368 C8.96704,39.62368 12.01984,39.5959467 14.7473067,35.6503467 L14.74944,35.6503467 C14.7537067,35.6439467 14.7579733,35.63648 14.76224,35.6290133 C14.7675733,35.6226133 14.7729067,35.61728 14.77824,35.6098133 L14.7761067,35.6087467 C17.4747733,31.6418133 16.4059733,28.7767467 16.4059733,28.7767467 C16.4059733,28.7767467 13.3531733,28.80448 10.62464,32.7511467" id="Fill-24"></path>
                            <path d="M10.62464,42.072 L10.6235733,42.0709333 C10.61824,42.0773333 10.61504,42.0848 10.6097067,42.0922667 C10.60544,42.0986667 10.6011733,42.104 10.59584,42.1114667 L10.5969067,42.1125333 C7.89717333,46.0794667 8.96704,48.9445333 8.96704,48.9445333 C8.96704,48.9445333 12.01984,48.9168 14.7473067,44.9701333 L14.74944,44.9712 C14.7537067,44.9637333 14.7579733,44.9573333 14.76224,44.9498667 C14.7675733,44.9424 14.7729067,44.9381333 14.77824,44.9306667 L14.7761067,44.9296 C17.4747733,40.9626667 16.4059733,38.0965333 16.4059733,38.0965333 C16.4059733,38.0965333 13.3531733,38.1253333 10.62464,42.072" id="Fill-26"></path>
                            <path d="M1.83722667,38.9469867 C1.84256,38.9544533 1.84789333,38.9597867 1.85216,38.9672533 C1.85749333,38.9736533 1.86069333,38.9800533 1.86496,38.98752 L1.86602667,38.9864533 C4.59562667,42.93312 7.64736,42.96192 7.64736,42.96192 C7.64736,42.96192 8.71722667,40.0957867 6.01856,36.1288533 L6.01962667,36.1277867 C6.01429333,36.1213867 6.00896,36.1160533 6.00469333,36.1085867 C5.99936,36.10112 5.99616,36.0936533 5.99189333,36.0872533 L5.99082667,36.08832 C3.26229333,32.1416533 0.209493333,32.11392 0.209493333,32.11392 C0.209493333,32.11392 -0.859306667,34.9789867 1.83936,38.94592 L1.83722667,38.9469867 Z" id="Fill-28"></path>
                            <path d="M1.83722667,48.26784 C1.84256,48.27424 1.84789333,48.28064 1.85216,48.2881067 C1.85749333,48.2945067 1.86069333,48.3009067 1.86496,48.3083733 L1.86602667,48.3073067 C4.59562667,52.2539733 7.64736,52.2817067 7.64736,52.2817067 C7.64736,52.2817067 8.71722667,49.41664 6.01856,45.4497067 L6.01962667,45.44864 C6.01429333,45.44224 6.00896,45.43584 6.00469333,45.42944 C5.99936,45.4219733 5.99616,45.4145067 5.99189333,45.40704 L5.99082667,45.4081067 C3.26229333,41.4625067 0.209493333,41.4347733 0.209493333,41.4347733 C0.209493333,41.4347733 -0.859306667,44.29984 1.83936,48.2667733 L1.83722667,48.26784 Z" id="Fill-30"></path>
                            <path d="M10.62464,51.54592 L10.6235733,51.54592 C10.61824,51.55232 10.61504,51.5597867 10.6097067,51.5672533 C10.60544,51.5725867 10.6011733,51.5789867 10.59584,51.5864533 L10.5969067,51.58752 C7.89717333,55.5544533 8.96704,58.4184533 8.96704,58.4184533 C8.96704,58.4184533 12.01984,58.3917867 14.7473067,54.44512 L14.74944,54.4461867 C14.7537067,54.43872 14.7579733,54.43232 14.76224,54.4248533 C14.7675733,54.4173867 14.7729067,54.4120533 14.77824,54.4056533 L14.7761067,54.4045867 C17.4747733,50.4376533 16.4059733,47.57152 16.4059733,47.57152 C16.4059733,47.57152 13.3531733,47.60032 10.62464,51.54592" id="Fill-32"></path>
                            <path d="M16.4059733,56.8928 C16.4059733,56.8928 13.3531733,56.9194667 10.62464,60.8672 L10.6235733,60.8661333 C10.61824,60.8725333 10.61504,60.8789333 10.6097067,60.8864 C10.6065067,60.8938667 10.6011733,60.9002667 10.59584,60.9066667 L10.5969067,60.9077333 C7.89717333,64.8746667 8.96704,67.7397333 8.96704,67.7397333 C8.96704,67.7397333 12.01984,67.7130667 14.7473067,63.7653333 L14.74944,63.7664 C14.7537067,63.7589333 14.7579733,63.7525333 14.76224,63.7461333 C14.7675733,63.7386667 14.7729067,63.7322667 14.77824,63.7248 L14.7761067,63.7248 C17.4747733,59.7578667 16.4059733,56.8928 16.4059733,56.8928" id="Fill-34"></path>
                            <path d="M1.83722667,57.74176 C1.84256,57.7492267 1.84789333,57.7556267 1.85216,57.7630933 C1.85749333,57.7684267 1.86069333,57.7758933 1.86496,57.78336 L1.86602667,57.7822933 C4.59562667,61.72896 7.64736,61.7566933 7.64736,61.7566933 C7.64736,61.7566933 8.71722667,58.8916267 6.01856,54.9236267 L6.01962667,54.92256 C6.01429333,54.9172267 6.00896,54.9108267 6.00469333,54.90336 C5.99936,54.8958933 5.99616,54.8894933 5.99189333,54.8820267 L5.99082667,54.8830933 C3.26229333,50.9364267 0.209493333,50.90976 0.209493333,50.90976 C0.209493333,50.90976 -0.859306667,53.77376 1.83936,57.74176 L1.83722667,57.74176 Z" id="Fill-36"></path>
                            <path d="M6.01845333,64.2449067 L6.01952,64.24384 C6.01418667,64.2363733 6.00885333,64.23104 6.00458667,64.2235733 C5.99925333,64.2171733 5.99605333,64.2107733 5.99178667,64.2033067 L5.99072,64.2043733 C3.26218667,60.2577067 0.209386667,60.2299733 0.209386667,60.2299733 C0.209386667,60.2299733 -0.859413333,63.09504 1.83925333,67.0619733 L1.83712,67.06304 C1.84245333,67.06944 1.84778667,67.0747733 1.85205333,67.08224 C1.85738667,67.0897067 1.86165333,67.0971733 1.86485333,67.1035733 L1.86592,67.1025067 C3.56192,69.5547733 5.38058667,70.4923733 6.51658667,70.85184 C6.82165333,72.0731733 7.02538667,73.5697067 7.02538667,75.42144 L7.02538667,79.8129067 L9.15872,79.8129067 L9.15872,75.42144 C9.15872,71.8107733 8.45472,69.3041067 7.58752,67.5707733 C7.33045333,66.6043733 6.85685333,65.4779733 6.01845333,64.2449067" id="Fill-38"></path>
                            <path d="M5.54965333,14.37088 C6.21098667,15.80448 6.56192,17.3575467 6.82432,18.9010133 C6.97685333,19.82688 7.06005333,20.7634133 7.10485333,21.70208 C6.36672,22.6226133 5.35018667,24.4402133 5.33845333,27.4983467 L5.33738667,27.4983467 L5.33738667,27.5218133 L5.33738667,27.5474133 L5.33845333,27.5474133 C5.35552,32.34848 7.85685333,34.1031467 7.85685333,34.1031467 C7.85685333,34.1031467 10.35712,32.34848 10.3741867,27.5474133 L10.37632,27.5474133 C10.37632,27.53888 10.3752533,27.5314133 10.3752533,27.5218133 C10.3752533,27.51328 10.37632,27.5058133 10.37632,27.4983467 L10.3741867,27.4983467 C10.36352,24.25888 9.22218667,22.4103467 8.48085333,21.54848 C8.32618667,20.5810133 8.13205333,19.6210133 7.86752,18.6770133 C7.41632,17.10048 6.87338667,15.53568 6.02432,14.1266133 C5.18485333,12.71968 4.10005333,11.4631467 2.77632,10.5415467 C3.99338667,11.6071467 4.89685333,12.9394133 5.54965333,14.37088" id="Fill-41"></path>
                            <path d="M53.4746667,27.5469867 C53.4928,32.3480533 55.9930667,34.10272 55.9930667,34.10272 C55.9930667,34.10272 58.4933333,32.3480533 58.5114667,27.5469867 L58.5136,27.5469867 C58.5136,27.5384533 58.5125333,27.5309867 58.5125333,27.5224533 C58.5125333,27.51392 58.5136,27.5064533 58.5136,27.49792 L58.5114667,27.49792 C58.4997333,24.4397867 57.4832,22.6221867 56.7450667,21.70272 C56.7898667,20.7640533 56.8741333,19.82752 57.0256,18.9016533 C57.2869333,17.35712 57.6378667,15.8040533 58.2992,14.3704533 C58.9530667,12.9400533 59.8565333,11.60672 61.0725333,10.54112 C59.7498667,11.46272 58.664,12.7192533 57.8256,14.1261867 C56.9765333,15.5352533 56.4325333,17.1000533 55.9834667,18.6776533 C55.7189333,19.6205867 55.5237333,20.5816533 55.3690667,21.5480533 C54.6266667,22.4109867 53.4874667,24.2584533 53.4746667,27.49792 L53.4736,27.49792 L53.4736,27.5224533 L53.4736,27.5469867 L53.4746667,27.5469867 Z" id="Fill-43"></path>
                            <path d="M49.07264,35.6094933 C49.0769067,35.61696 49.08224,35.62336 49.0875733,35.62976 C49.0929067,35.63616 49.09504,35.6436267 49.1003733,35.6500267 L49.10144,35.6500267 C51.8299733,39.5956267 54.8827733,39.6244267 54.8827733,39.6244267 C54.8827733,39.6244267 55.9515733,36.7582933 53.2529067,32.79136 L53.2539733,32.7902933 C53.2497067,32.7838933 53.2443733,32.77856 53.23904,32.7710933 C53.2347733,32.7636267 53.2305067,32.7572267 53.2273067,32.74976 L53.2251733,32.7508267 C50.49664,28.80416 47.44384,28.7774933 47.44384,28.7774933 C47.44384,28.7774933 46.37504,31.6414933 49.0737067,35.6084267 L49.07264,35.6094933 Z" id="Fill-45"></path>
                            <path d="M49.07264,44.9303467 C49.0769067,44.9378133 49.08224,44.9431467 49.0875733,44.9506133 C49.0929067,44.9570133 49.09504,44.9634133 49.1003733,44.97088 L49.10144,44.9698133 C51.8299733,48.91648 54.8827733,48.94528 54.8827733,48.94528 C54.8827733,48.94528 55.9515733,46.0791467 53.2529067,42.1122133 L53.2539733,42.1111467 C53.2497067,42.1047467 53.2443733,42.0994133 53.23904,42.0919467 C53.2347733,42.08448 53.2305067,42.0770133 53.2273067,42.0706133 L53.2251733,42.07168 C50.49664,38.1250133 47.44384,38.09728 47.44384,38.09728 C47.44384,38.09728 46.37504,40.9623467 49.0737067,44.92928 L49.07264,44.9303467 Z" id="Fill-47"></path>
                            <path d="M57.86016,36.08864 L57.8590933,36.0875733 C57.85376,36.0939733 57.8494933,36.10144 57.8452267,36.1089067 C57.8398933,36.1153067 57.8356267,36.12064 57.83136,36.1281067 L57.8324267,36.1291733 C55.1326933,40.0961067 56.2014933,42.9611733 56.2014933,42.9611733 C56.2014933,42.9611733 59.25536,42.93344 61.9828267,38.9867733 L61.9838933,38.98784 C61.9892267,38.9803733 61.9924267,38.9739733 61.99776,38.9665067 C62.0030933,38.95904 62.0084267,38.9547733 62.0126933,38.9473067 L62.0116267,38.94624 C64.7102933,34.9793067 63.6414933,32.1131733 63.6414933,32.1131733 C63.6414933,32.1131733 60.5886933,32.1419733 57.86016,36.08864" id="Fill-49"></path>
                            <path d="M57.86016,45.4084267 L57.8590933,45.40736 C57.85376,45.4148267 57.8494933,45.4222933 57.8452267,45.42976 C57.8398933,45.4350933 57.8356267,45.4414933 57.83136,45.44896 L57.8324267,45.4500267 C55.1326933,49.41696 56.2014933,52.28096 56.2014933,52.28096 C56.2014933,52.28096 59.25536,52.2542933 61.9828267,48.3076267 L61.9838933,48.3086933 C61.9892267,48.3012267 61.9924267,48.2948267 61.99776,48.28736 C62.0030933,48.2798933 62.0084267,48.27456 62.0126933,48.26816 L62.0116267,48.2670933 C64.7102933,44.30016 63.6414933,41.4340267 63.6414933,41.4340267 C63.6414933,41.4340267 60.5886933,41.4628267 57.86016,45.4084267" id="Fill-52"></path>
                            <path d="M49.07264,54.4053333 C49.0769067,54.4117333 49.08224,54.4181333 49.0875733,54.4256 C49.0929067,54.432 49.09504,54.4384 49.1003733,54.4458667 L49.10144,54.4448 C51.8299733,58.3914667 54.8827733,58.4192 54.8827733,58.4192 C54.8827733,58.4192 55.9515733,55.5541333 53.2529067,51.5872 L53.2539733,51.5861333 C53.2497067,51.5797333 53.2443733,51.5733333 53.23904,51.5669333 C53.2347733,51.5594667 53.2305067,51.552 53.2273067,51.5456 L53.2251733,51.5456 C50.49664,47.6 47.44384,47.5722667 47.44384,47.5722667 C47.44384,47.5722667 46.37504,50.4373333 49.0737067,54.4042667 L49.07264,54.4053333 Z" id="Fill-55"></path>
                            <path d="M53.2528,60.9074133 L53.2538667,60.9063467 C53.2496,60.8999467 53.2442667,60.8935467 53.2389333,60.88608 C53.2346667,60.87968 53.2304,60.87328 53.2272,60.8658133 L53.2250667,60.86688 C50.4965333,56.9202133 47.4437333,56.89248 47.4437333,56.89248 C47.4437333,56.89248 46.3749333,59.7575467 49.0736,63.7255467 L49.0725333,63.7255467 C49.0768,63.7319467 49.0821333,63.7383467 49.0874667,63.7458133 C49.0928,63.7522133 49.096,63.75968 49.1002667,63.7671467 L49.1013333,63.76608 C51.8298667,67.7127467 54.8826667,67.7394133 54.8826667,67.7394133 C54.8826667,67.7394133 55.9514667,64.8754133 53.2528,60.9074133" id="Fill-57"></path>
                            <path d="M57.86016,54.8834133 L57.8590933,54.8823467 C57.85376,54.8898133 57.8494933,54.8962133 57.8452267,54.90368 C57.8398933,54.91008 57.8356267,54.91648 57.83136,54.92288 L57.8324267,54.9239467 C55.1326933,58.8919467 56.2014933,61.7559467 56.2014933,61.7559467 C56.2014933,61.7559467 59.25536,61.72928 61.9828267,57.7826133 L61.9838933,57.78368 C61.9892267,57.7762133 61.9924267,57.7687467 61.99776,57.7623467 C62.0030933,57.75488 62.0084267,57.7495467 62.0126933,57.74208 L62.0116267,57.74208 C64.7102933,53.77408 63.6414933,50.9090133 63.6414933,50.9090133 C63.6414933,50.9090133 60.5886933,50.9367467 57.86016,54.8834133" id="Fill-59"></path>
                            <path d="M63.6413867,60.2302933 C63.6413867,60.2302933 60.5885867,60.25696 57.8600533,64.2046933 L57.8589867,64.2036267 C57.8536533,64.2100267 57.8493867,64.2164267 57.84512,64.2238933 C57.8408533,64.23136 57.83552,64.2366933 57.8312533,64.24416 L57.83232,64.2452267 C56.9928533,65.47936 56.5181867,66.6068267 56.2621867,67.5732267 C55.3949867,69.30656 54.6909867,71.81216 54.6909867,75.4206933 L54.6909867,79.81216 L56.82432,79.81216 L56.82432,75.4206933 C56.82432,73.5700267 57.02912,72.0734933 57.3341867,70.85216 C58.46912,70.4926933 60.2877867,69.5540267 61.98272,67.10176 L61.9837867,67.1028267 C61.98912,67.0964267 61.99232,67.0900267 61.9976533,67.08256 C62.0029867,67.0750933 62.00832,67.06976 62.0125867,67.0622933 L62.01152,67.0612267 C64.7101867,63.09536 63.6413867,60.2302933 63.6413867,60.2302933" id="Fill-62"></path>
                        </g>
                    </g>
                </g>
            </g>
        </g>
    </g>
</svg>