<?xml version="1.0" encoding="UTF-8"?>
<svg width="60px" height="60px" viewBox="0 0 60 60" version="1.1" xmlns="http://www.w3.org/2000/svg" xmlns:xlink="http://www.w3.org/1999/xlink">
    <!-- Generator: Sketch 53.1 (72631) - https://sketchapp.com -->
    <title>Icon - Increase</title>
    <desc>Created with Sketch.</desc>
    <g id="Vision-2050" stroke="none" stroke-width="1" fill="none" fill-rule="evenodd">
        <g id="Scroll---Desktop---Vision-2050" transform="translate(-770.000000, -5088.000000)" fill="#00703C">
            <g id="4-Fishing" transform="translate(0.000000, 3350.000000)">
                <g id="Stats" transform="translate(575.000000, 1444.000000)">
                    <g id="Icon---Increase" transform="translate(195.000000, 294.000000)">
                        <path d="M38.5632154,11.5694887 L30.6279865,0.327670602 C30.3194576,-0.109223534 29.6804218,-0.109223534 29.3721711,0.327670602 L21.436664,11.5694887 C21.0697122,12.0895738 21.4349948,12.8139579 22.0645717,12.8139579 L25.8726358,12.8139579 L25.8726358,27.0967742 L34.1272435,27.0967742 L34.1272435,12.8139579 L37.9353077,12.8139579 C38.5648846,12.8139579 38.9304454,12.0895738 38.5632154,11.5694887" id="Fill-1"></path>
                        <path d="M38.5632154,44.472755 L30.6279865,33.2306833 C30.3194576,32.7940733 29.6804218,32.7940733 29.3721711,33.2306833 L21.436664,44.472755 C21.0697122,44.9928388 21.4349948,45.717221 22.0645717,45.717221 L25.8726358,45.717221 L25.8726358,60 L34.1272435,60 L34.1272435,45.717221 L37.9353077,45.717221 C38.5648846,45.717221 38.9304454,44.9928388 38.5632154,44.472755" id="Fill-3"></path>
                        <path d="M17.2728928,25.1178758 L9.33766392,13.8760577 C9.02913506,13.4391636 8.39009917,13.4391636 8.08184851,13.8760577 L0.14634145,25.1178758 C-0.220610374,25.6379609 0.144672223,26.362345 0.774249157,26.362345 L4.58231327,26.362345 L4.58231327,40.6451613 L12.836921,40.6451613 L12.836921,26.362345 L16.6449851,26.362345 C17.274562,26.362345 17.6401228,25.6379609 17.2728928,25.1178758" id="Fill-6"></path>
                        <path d="M59.8535379,26.0856177 L51.9183091,14.8437996 C51.6097802,14.4069055 50.9707443,14.4069055 50.6624937,14.8437996 L42.7269866,26.0856177 C42.3600348,26.6057028 42.7253174,27.3300869 43.3548943,27.3300869 L47.1629584,27.3300869 L47.1629584,41.6129032 L55.4175661,41.6129032 L55.4175661,27.3300869 L59.2256302,27.3300869 C59.8552072,27.3300869 60.220768,26.6057028 59.8535379,26.0856177" id="Fill-8"></path>
                    </g>
                </g>
            </g>
        </g>
    </g>
</svg>