<?xml version="1.0" encoding="UTF-8"?>
<svg width="80px" height="80px" viewBox="0 0 80 80" version="1.1" xmlns="http://www.w3.org/2000/svg" xmlns:xlink="http://www.w3.org/1999/xlink">
    <!-- Generator: Sketch 53.1 (72631) - https://sketchapp.com -->
    <title>Icon - Energy</title>
    <desc>Created with Sketch.</desc>
    <g id="Vision-2050" stroke="none" stroke-width="1" fill="none" fill-rule="evenodd">
        <g id="T---Vision-2050---2C" transform="translate(-136.000000, -800.000000)" fill="#3C3C3C">
            <g id="2-Globe">
                <g id="Icons" transform="translate(83.000000, 747.000000)">
                    <g id="Energy">
                        <g id="Icon---Energy" transform="translate(53.000000, 53.000000)">
                            <path d="M40.6071351,21.4349189 C39.7368649,21.4349189 39.032,20.7300541 39.032,19.8597838 C39.032,18.9905946 39.7368649,18.2857297 40.6071351,18.2857297 C41.4774054,18.2857297 42.1811892,18.9905946 42.1811892,19.8597838 C42.1811892,20.7300541 41.4774054,21.4349189 40.6071351,21.4349189 M46.2179459,20.756 C45.6676757,20.4003243 45.1336216,20.0770811 44.5941622,19.7441081 C44.0665946,19.4197838 43.5498378,19.103027 43.0384865,18.8024865 C43.0709189,17.9408649 43.0936216,17.0522162 43.1022703,16.1408649 C43.1055135,15.8241081 43.1087568,15.5095135 43.1087568,15.1873514 C43.1087568,6.79924324 42.0406486,0.000324324324 40.7217297,0.000324324324 C39.4038919,0.000324324324 38.3347027,6.79924324 38.3347027,15.1873514 C38.3347027,15.5462703 38.339027,15.8976216 38.3422703,16.2511351 C38.352,17.0781622 38.3725405,17.8857297 38.4006486,18.6716757 C37.8157838,19.0143784 37.2255135,19.3711351 36.6201081,19.7441081 C36.0806486,20.0770811 35.5465946,20.4003243 34.9963243,20.756 C27.9465946,25.3008649 22.8114595,29.8846486 23.5260541,30.9927568 C24.2395676,32.1008649 30.5347027,29.3138378 37.5833514,24.768973 C37.9963243,24.5019459 38.3779459,24.2370811 38.7768649,23.9722162 C39.404973,23.5538378 40.019027,23.1397838 40.6071351,22.7268108 C41.2611892,23.1862703 41.9465946,23.6478919 42.6503784,24.1149189 C42.9801081,24.3322162 43.2914595,24.5495135 43.6309189,24.768973 C50.6795676,29.3138378 56.9736216,32.1008649 57.6882162,30.9927568 C58.4028108,29.8846486 53.2676757,25.3008649 46.2179459,20.756" id="Fill-1"></path>
                            <polygon id="Fill-3" points="40.6071351 25.2952432 39.2655135 25.904973 37.2979459 79.8098378 40.6071351 79.8098378 43.9152432 79.8098378 41.9476757 25.904973"></polygon>
                            <path d="M37.4673514,1.88248649 C37.8046486,1.80572973 38.0165405,1.47059459 37.9397838,1.1332973 C37.863027,0.797081081 37.528973,0.58627027 37.1905946,0.661945946 C32.7776216,1.62518919 28.8154595,4.13762162 26.0976216,7.56032432 C29.1322162,4.41113514 33.2057297,2.396 37.4035676,1.8932973 C37.4241081,1.89113514 37.4478919,1.88681081 37.4673514,1.88248649" id="Fill-5"></path>
                            <path d="M26.5647568,32.6394595 C26.5528649,32.6243243 26.5366486,32.6048649 26.5225946,32.5897297 C26.2804324,32.3432432 25.8847568,32.3378378 25.6382703,32.5789189 C25.3907027,32.8210811 25.3852973,33.2167568 25.6263784,33.4654054 C28.7517838,36.7205405 32.9561081,38.8113514 37.2977297,39.3367568 C33.0231351,38.3972973 29.1896216,35.9572973 26.5647568,32.6394595" id="Fill-7"></path>
                            <path d="M58.0807568,26.9469189 C58.0753514,26.9620541 58.0667027,26.9825946 58.0612973,26.9977297 C57.9531892,27.3252973 58.1304865,27.6798919 58.4591351,27.788 C58.7856216,27.8971892 59.1391351,27.7198919 59.2483243,27.3912432 C61.0591351,22.0852973 60.4623784,16.1296216 57.7585946,11.4236757 C60.0937297,16.3263784 60.1553514,22.1274595 58.0807568,26.9469189" id="Fill-9"></path>
                            <path d="M11.3029189,41.3335135 C10.7288649,41.3335135 10.264,40.8686486 10.264,40.2956757 C10.264,39.7216216 10.7288649,39.2567568 11.3029189,39.2567568 C11.8758919,39.2567568 12.3407568,39.7216216 12.3407568,40.2956757 C12.3407568,40.8686486 11.8758919,41.3335135 11.3029189,41.3335135 M15.0012973,40.8859459 C14.6380541,40.6513514 14.2856216,40.4383784 13.9299459,40.2189189 C13.5829189,40.0048649 13.2412973,39.7962162 12.9050811,39.5983784 C12.9267027,39.0297297 12.9418378,38.4448649 12.9472432,37.8427027 C12.9483243,37.6340541 12.9515676,37.4275676 12.9515676,37.2145946 C12.9515676,31.6859459 12.2477838,27.2048649 11.3775135,27.2048649 C10.5094054,27.2048649 9.80454054,31.6859459 9.80454054,37.2145946 C9.80454054,37.4513514 9.80778378,37.6837838 9.80994595,37.9162162 C9.81643243,38.4610811 9.82940541,38.9940541 9.84778378,39.5118919 C9.46291892,39.7367568 9.07264865,39.9724324 8.67481081,40.2189189 C8.31913514,40.4383784 7.9667027,40.6513514 7.60345946,40.8859459 C2.95697297,43.8816216 -0.427891892,46.9021622 0.0434594595,47.632973 C0.514810811,48.3637838 4.66291892,46.527027 9.30940541,43.5302703 C9.58183784,43.3551351 9.83372973,43.18 10.0964324,43.0048649 C10.5104865,42.7302703 10.9158919,42.4567568 11.3029189,42.1843243 C11.7331892,42.487027 12.1850811,42.792973 12.6488649,43.1 C12.8672432,43.2437838 13.0726486,43.3854054 13.2953514,43.5302703 C17.9418378,46.527027 22.0899459,48.3637838 22.5612973,47.632973 C23.0326486,46.9021622 19.6477838,43.8816216 15.0012973,40.8859459" id="Fill-11"></path>
                            <polygon id="Fill-14" points="11.3029189 43.8778378 10.4185946 44.2789189 9.1212973 79.8097297 11.3029189 79.8097297 13.4834595 79.8097297 12.1861622 44.2789189"></polygon>
                            <path d="M68.5072432,41.3335135 C67.9342703,41.3335135 67.4694054,40.8686486 67.4694054,40.2956757 C67.4694054,39.7216216 67.9342703,39.2567568 68.5072432,39.2567568 C69.0802162,39.2567568 69.5450811,39.7216216 69.5450811,40.2956757 C69.5450811,40.8686486 69.0802162,41.3335135 68.5072432,41.3335135 M72.2067027,40.8859459 C71.8423784,40.6513514 71.491027,40.4383784 71.1353514,40.2189189 C70.7883243,40.0048649 70.4467027,39.7962162 70.1094054,39.5983784 C70.1321081,39.0297297 70.1461622,38.4448649 70.1515676,37.8427027 C70.1537297,37.6340541 70.156973,37.4275676 70.156973,37.2145946 C70.156973,31.6859459 69.4531892,27.2048649 68.5829189,27.2048649 C67.7148108,27.2048649 67.0099459,31.6859459 67.0099459,37.2145946 C67.0099459,37.4513514 67.0131892,37.6837838 67.0153514,37.9162162 C67.0218378,38.4610811 67.0348108,38.9940541 67.0531892,39.5118919 C66.6683243,39.7367568 66.2780541,39.9724324 65.8791351,40.2189189 C65.5245405,40.4383784 65.1721081,40.6513514 64.8088649,40.8859459 C60.1623784,43.8816216 56.7775135,46.9021622 57.2488649,47.632973 C57.7191351,48.3637838 61.8683243,46.527027 66.5148108,43.5302703 C66.7872432,43.3551351 67.0391351,43.18 67.3018378,43.0048649 C67.7158919,42.7302703 68.1202162,42.4567568 68.5072432,42.1843243 C68.9385946,42.487027 69.3904865,42.792973 69.8542703,43.1 C70.0715676,43.2437838 70.276973,43.3854054 70.5007568,43.5302703 C75.1472432,46.527027 79.2953514,48.3637838 79.7656216,47.632973 C80.236973,46.9021622 76.8521081,43.8816216 72.2067027,40.8859459" id="Fill-16"></path>
                            <polygon id="Fill-18" points="68.5072432 43.8778378 67.624 44.2789189 66.3267027 79.8097297 68.5072432 79.8097297 70.6888649 79.8097297 69.3915676 44.2789189"></polygon>
                        </g>
                    </g>
                </g>
            </g>
        </g>
    </g>
</svg>