<?xml version="1.0" encoding="UTF-8"?>
<svg width="80px" height="80px" viewBox="0 0 80 80" version="1.1" xmlns="http://www.w3.org/2000/svg" xmlns:xlink="http://www.w3.org/1999/xlink">
    <!-- Generator: Sketch 53.1 (72631) - https://sketchapp.com -->
    <title>Icon - Fish</title>
    <desc>Created with Sketch.</desc>
    <g id="Vision-2050" stroke="none" stroke-width="1" fill="none" fill-rule="evenodd">
        <g id="T---Vision-2050---2C" transform="translate(-551.000000, -800.000000)" fill="#3C3C3C">
            <g id="2-Globe">
                <g id="Icons" transform="translate(83.000000, 747.000000)">
                    <g id="Fishing" transform="translate(415.000000, 0.000000)">
                        <g id="Icon---Fish" transform="translate(53.000000, 53.000000)">
                            <path d="M1.52583784,51.3008649 C0.682594595,51.3008649 0.000432432432,51.9841081 0.000432432432,52.8262703 C0.000432432432,53.6684324 0.682594595,54.3516757 1.52583784,54.3516757 C2.368,54.3516757 3.05124324,53.6684324 3.05124324,52.8262703 C3.05124324,51.9841081 2.368,51.3008649 1.52583784,51.3008649" id="Fill-1"></path>
                            <path d="M9.15351351,46.7242162 C9.15351351,45.1317838 7.86378378,43.8420541 6.27135135,43.8420541 C4.68,43.8420541 3.39027027,45.1317838 3.39027027,46.7242162 C3.39027027,48.3155676 4.68,49.6052973 6.27135135,49.6052973 C7.86378378,49.6052973 9.15351351,48.3155676 9.15351351,46.7242162" id="Fill-3"></path>
                            <path d="M1.69524324,41.8086486 C2.25848649,41.8086486 2.71145946,41.3535135 2.71145946,40.7913514 C2.71145946,40.2281081 2.25848649,39.7740541 1.69524324,39.7740541 C1.132,39.7740541 0.677945946,40.2281081 0.677945946,40.7913514 C0.677945946,41.3535135 1.132,41.8086486 1.69524324,41.8086486" id="Fill-5"></path>
                            <path d="M77.5214054,10.983027 C76.9311351,10.983027 76.4511351,11.4619459 76.4511351,12.0522162 C76.4500541,12.6424865 76.928973,13.1224865 77.5192432,13.1224865 C78.1095135,13.1224865 78.5895135,12.6435676 78.5895135,12.0532973 C78.5895135,11.463027 78.1105946,10.983027 77.5214054,10.983027" id="Fill-7"></path>
                            <path d="M78.5940541,5.82313514 C77.9194595,5.82313514 77.3713514,6.36908108 77.3713514,7.04475676 C77.3702703,7.71935135 77.9172973,8.26745946 78.592973,8.26745946 C79.2675676,8.26854054 79.8156757,7.72151351 79.8156757,7.04583784 C79.8167568,6.37124324 79.2697297,5.82313514 78.5940541,5.82313514" id="Fill-9"></path>
                            <path d="M60.6854054,22.5075676 C60.6854054,22.5075676 57.6735135,25.3237838 51.1654054,24.8697297 C44.9027027,24.4297297 43.7751351,25.4048649 43.6994595,25.4794595 C43.8064865,25.3735135 50.5232432,18.6654054 61.7102703,18.8416216 C61.7102703,18.8416216 59.5556757,20.5886486 60.6854054,22.5075676 M71.7567568,13.1821622 C71.7945946,13.1756757 71.8291892,13.152973 71.8691892,13.152973 C71.8745946,13.152973 71.8778378,13.1562162 71.8810811,13.1562162 C71.8864865,13.1562162 71.8908108,13.152973 71.8962162,13.152973 C72.6518919,13.1540541 73.2648649,13.7681081 73.2648649,14.5227027 C73.2637838,15.2783784 72.6497297,15.8913514 71.8951351,15.8902703 C71.1405405,15.8902703 70.5275676,15.2762162 70.5275676,14.5205405 C70.5275676,13.8156757 71.0702703,13.2545946 71.7567568,13.1821622 M69.4054054,21.7248649 C65.6086486,22.567027 64.2281081,19.7454054 63.6378378,18.5054054 C63.0497297,17.2632432 60.8518919,11.5086486 64.9718919,11.287027 C64.9718919,11.287027 61.4118919,12.1540541 64.3254054,18.2243243 C66.8237838,23.4286486 71.0518919,20.7367568 74.1956757,17.9843243 C74.5881081,17.6286486 76.0616216,16.2740541 76.7167568,15.4124324 C74.8443243,13.7745946 70.6508108,10.4589189 65.8118919,7.84486486 C63.7513514,5.38 59.7308108,1.43405405 54.1967568,0.000540540541 C54.1967568,0.000540540541 49.5816216,0.954054054 45.2291892,2.75621622 C40.8778378,4.5572973 32.9145946,2.8027027 27.6216216,5.56378378 C27.6216216,5.56378378 28.9827027,7.78216216 31.0421622,9.78108108 C31.652973,10.3735135 32.5935135,10.4308108 33.3135135,9.97459459 C43.2864865,3.65243243 54.5697297,4.22972973 54.5697297,4.22972973 C45.2778378,5.03513514 39.0378378,7.92702703 35.8227027,9.83405405 C35.8194595,9.83621622 35.8151351,9.83621622 35.8118919,9.83837838 C34.9416216,10.3356757 33.6108108,11.1378378 33.4605405,11.2275676 C33.4497297,11.2340541 33.4378378,11.2394595 33.427027,11.2448649 C32.1037838,11.8924324 30.5708108,11.9454054 29.1794595,11.4632432 C25.8064865,10.2913514 20.4627027,7.63945946 19.0691892,8.88486486 C18.7124324,9.35621622 18.4172973,9.88702703 18.1556757,10.4491892 L30.9686486,14.0189189 L17.8021622,11.3064865 C17.4032432,12.4027027 17.1459459,13.5886486 17.0021622,14.7724324 L29.9016216,15.912973 L16.9124324,15.7151351 C16.8313514,16.8502703 16.8432432,17.9454054 16.9243243,18.9172973 C19.1405405,18.7172973 21.3567568,18.5324324 23.5740541,18.3940541 C26.0356757,18.2427027 28.5016216,18.1172973 30.9654054,18.1551351 C28.5037838,18.2805405 26.052973,18.5713514 23.6032432,18.8837838 C21.4086486,19.1691892 19.2162162,19.4978378 17.0281081,19.8448649 C17.2475676,21.4156757 17.6421622,22.4762162 18.0432432,22.447027 C19.2194595,22.3627027 22.692973,21.9713514 26.5967568,20.847027 C28.9567568,20.1648649 30.4616216,19.9605405 32.0043243,20.4708108 C29.5459459,21.6362162 25.9243243,23.4816216 27.9827027,23.3291892 C29.6475676,23.2048649 31.7059459,24.2664865 33.4183784,25.2145946 L33.4183784,25.2135135 C33.4183784,25.2135135 36.4864865,26.5313514 40.3254054,26.5605405 L40.3264865,26.5605405 C41.6475676,26.5648649 43.0594595,26.5778378 44.1632432,26.5886486 C45.8962162,26.9994595 47.7027027,27.2351351 49.5189189,27.2362162 C49.5978378,27.2362162 49.6735135,27.2340541 49.7535135,27.2318919 C49.2421622,29.3475676 49.8897297,32.5951351 49.8897297,32.5951351 C56.2248649,30.3994595 58.9535135,27.5972973 59.92,26.3356757 C72.6508108,23.9637838 77.2118919,17.7259459 77.2118919,17.7259459 L76.4508108,17.0124324 C75.28,18.1854054 72.3513514,21.0686486 69.4054054,21.7248649" id="Fill-11"></path>
                            <path d="M35.4890811,70.924973 C28.0047568,71.4482162 24.5420541,68.2092973 24.5420541,68.2092973 C25.8404324,66.0028108 23.3625946,63.9941622 23.3625946,63.9941622 C36.2285405,63.7909189 43.9528649,71.5044324 44.0739459,71.6265946 C43.9863784,71.5411892 42.6901622,70.4201081 35.4890811,70.924973 L35.4890811,70.924973 Z M11.6512432,60.5995676 C10.7820541,60.6006486 10.0771892,59.8957838 10.0761081,59.0265946 C10.075027,58.1584865 10.780973,57.4525405 11.6490811,57.4525405 C11.6555676,57.4525405 11.6598919,57.4557838 11.6663784,57.4557838 C11.6717838,57.4557838 11.675027,57.4525405 11.6804324,57.4525405 C11.7269189,57.4525405 11.7658378,57.4784865 11.8101622,57.484973 C12.5982703,57.5692973 13.2231351,58.2136216 13.2231351,59.0244324 C13.2242162,59.8936216 12.5182703,60.5995676 11.6512432,60.5995676 L11.6512432,60.5995676 Z M59.940973,60.6265946 L74.7755676,59.3152432 C74.6112432,57.9530811 74.315027,56.5887568 73.8544865,55.3271351 L58.7139459,58.4482162 L73.4490811,54.3422703 C73.1485405,53.6957838 72.8090811,53.0860541 72.3993514,52.5444324 C70.7961081,51.112 64.6512432,54.1617297 60.7723243,55.5087568 C59.1723243,56.0644324 57.4090811,56.0017297 55.888,55.2579459 C55.8739459,55.2514595 55.8620541,55.244973 55.848,55.2384865 C55.6761081,55.1347027 54.1474595,54.2125405 53.1452973,53.6406486 C53.140973,53.6384865 53.1355676,53.6374054 53.1312432,53.6352432 C49.4361081,51.4428108 42.2598919,48.1163243 31.5744865,47.1909189 C31.5744865,47.1909189 44.5496216,46.5271351 56.0188108,53.7974054 C56.8458378,54.3217297 57.928,54.2557838 58.6307027,53.5736216 C60.9993514,51.2763243 62.5636757,48.724973 62.5636757,48.724973 C56.4771892,45.5498378 47.3193514,47.5682162 42.315027,45.4968649 C37.3117838,43.4233514 32.0025946,42.3271351 32.0025946,42.3271351 C25.6393514,43.9757838 21.0155676,48.5141622 18.6458378,51.3487568 C13.0815135,54.3541622 8.25989189,58.1671351 6.10637838,60.0503784 C6.85989189,61.0406486 8.55286486,62.5995676 9.00367568,63.0082162 C12.620973,66.1725405 17.4836757,69.2687568 20.355027,63.2838919 C23.7063784,56.3044324 19.6123243,55.3065946 19.6123243,55.3065946 C24.3496216,55.5617297 21.8231351,62.179027 21.1463784,63.6071351 C20.4663784,65.0330811 18.8804324,68.2774054 14.5139459,67.3087568 C11.1258378,66.5552432 7.75718919,63.2395676 6.41232432,61.8914595 L5.53664865,62.7109189 C5.53664865,62.7109189 10.7820541,69.8838919 25.420973,72.6125405 C26.5323243,74.0622703 29.6707027,77.284973 36.9571892,79.8103784 C36.9571892,79.8103784 37.700973,76.0763243 37.1139459,73.6428108 C37.2036757,73.6460541 37.2923243,73.6482162 37.3820541,73.6482162 C39.4717838,73.6460541 41.5474595,73.3768649 43.540973,72.9033514 C44.8101622,72.8892973 46.4339459,72.8763243 47.9539459,72.8709189 L47.955027,72.8709189 C52.3690811,72.8374054 55.8977297,71.3217297 55.8977297,71.3217297 C57.8663784,70.232 60.235027,69.0114595 62.1485405,69.1530811 C64.5161081,69.3303784 60.3507027,67.2082162 57.5247568,65.8676757 C59.2977297,65.2806486 61.0285405,65.5163243 63.7431351,66.3001081 C68.2317838,67.5930811 72.2263784,68.0438919 73.5788108,68.1401081 C74.0393514,68.1736216 74.4934054,66.9530811 74.7463784,65.1476757 C72.2285405,64.7487568 69.7074595,64.3703784 67.1842162,64.0428108 C64.368,63.6838919 61.5485405,63.3487568 58.7182703,63.2038919 C61.5507027,63.1606486 64.3863784,63.3044324 67.2188108,63.4784865 C69.7690811,63.6384865 72.3161081,63.8503784 74.8642162,64.0806486 C74.9593514,62.9638919 74.9723243,61.7044324 74.8793514,60.3984865 L59.940973,60.6265946 Z" id="Fill-13"></path>
                        </g>
                    </g>
                </g>
            </g>
        </g>
    </g>
</svg>