<?xml version="1.0" encoding="UTF-8"?>
<svg width="73px" height="300px" viewBox="0 0 73 300" version="1.1" xmlns="http://www.w3.org/2000/svg" xmlns:xlink="http://www.w3.org/1999/xlink">
    <!-- Generator: Sketch 53.1 (72631) - https://sketchapp.com -->
    <title>Illustration - Fish Hook</title>
    <desc>Created with Sketch.</desc>
    <defs>
        <polygon id="path-1" points="0.429752239 0.342766958 60.5481254 0.342766958 60.5481254 147.777778 0.429752239 147.777778"></polygon>
        <polygon id="path-3" points="0 0.152707483 14.1930343 0.152707483 14.1930343 26.1423673 0 26.1423673"></polygon>
        <polygon id="path-5" points="0 0.209964912 69.5797149 0.209964912 69.5797149 146.122346 0 146.122346"></polygon>
    </defs>
    <g id="Vision-2050" stroke="none" stroke-width="1" fill="none" fill-rule="evenodd">
        <g id="Scroll---Desktop---Vision-2050" transform="translate(-764.000000, -3350.000000)">
            <g id="4-Fishing" transform="translate(0.000000, 3350.000000)">
                <g id="Image">
                    <g id="Illustration---Fish-Hook" transform="translate(763.000000, 0.000000)">
                        <g id="Group-3" transform="translate(13.253731, 152.222222)">
                            <mask id="mask-2" fill="white">
                                <use xlink:href="#path-1"></use>
                            </mask>
                            <g id="Clip-2"></g>
                            <path d="M51.0264239,0.342766958 C54.5905731,3.21253392 56.8784985,7.61265876 56.8784985,12.5407986 C56.8784985,19.8992464 51.7813343,26.083774 44.9413045,27.743645 L44.9413045,114.845638 C44.9413045,131.787503 31.1889015,145.57124 14.2854239,145.57124 C9.30036418,145.57124 4.59473731,144.364665 0.429752239,142.239875 C5.40100597,145.725106 11.4419463,147.777944 17.9550507,147.777944 C34.8590806,147.777944 48.6114836,133.99476 48.6114836,117.052342 L48.6114836,29.9503491 C55.4520657,28.2904782 60.5481254,22.1059505 60.5481254,14.7475027 C60.5481254,8.2845772 56.6178418,2.7249226 51.0264239,0.342766958" id="Fill-1" fill="#B6B8BB" mask="url(#mask-2)"></path>
                        </g>
                        <g id="Group-6" transform="translate(0.000000, 221.111111)"></g>
                        <g id="Group-9" transform="translate(1.104478, 222.222222)">
                            <mask id="mask-4" fill="white">
                                <use xlink:href="#path-3"></use>
                            </mask>
                            <g id="Clip-8"></g>
                            <path d="M14.1930343,24.0030476 L14.1643179,23.9937959 L14.1930343,23.9937959 C6.42413881,18.581551 1.09061642,9.99869388 0.149049254,0.152707483 L0.00160149254,0.152707483 C0.00160149254,0.17229932 -5.52238806e-05,0.191346939 -5.52238806e-05,0.210938776 C-5.52238806e-05,10.0476735 3.51549701,19.0735238 9.37198955,26.1423673 C10.5548851,24.8324354 12.2734522,24.0030476 14.1930343,24.0030476" id="Fill-7" fill="#FEFEFE" mask="url(#mask-4)"></path>
                        </g>
                        <path d="M50.8059701,153.333333 C46.2011644,156.049711 43.0746269,161.286828 43.0746269,167.291274 C43.0746269,170.796968 44.1495391,174.033167 45.9530265,176.666667 C45.251377,174.371446 44.8680831,171.923436 44.8680831,169.378453 C44.8680831,163.172732 47.125082,157.533063 50.8059701,153.333333" id="Fill-10" fill="#FEFEFE"></path>
                        <g id="Group-14" transform="translate(1.104478, 151.111111)">
                            <mask id="mask-6" fill="white">
                                <use xlink:href="#path-5"></use>
                            </mask>
                            <g id="Clip-13"></g>
                            <path d="M57.6408642,23.6600902 C53.297506,23.6600902 49.7631776,20.1318195 49.7631776,15.7946767 C49.7631776,11.4575338 53.297506,7.92926316 57.6408642,7.92926316 C61.9842224,7.92926316 65.5185507,11.4575338 65.5185507,15.7946767 C65.5185507,20.1318195 61.9842224,23.6600902 57.6408642,23.6600902 M63.7276403,1.44394987 C61.8566552,0.649964912 59.7990134,0.209964912 57.6408642,0.209964912 C54.9150134,0.209964912 52.3515209,0.912972431 50.1188194,2.1442005 C46.2686104,6.25141855 43.9077896,11.7668571 43.9077896,17.8358797 C43.9077896,20.324802 44.3087149,22.7188872 45.0426403,24.9635489 C47.1135358,27.7910175 50.1050134,29.9055539 53.5813567,30.8412431 L53.5813567,30.9564812 L53.5813567,110.62405 L53.5813567,117.71202 C53.5813567,130.333073 43.2975657,140.601393 30.6568194,140.601393 C18.0155209,140.601393 7.73117761,130.333073 7.73117761,117.71202 L7.73117761,101.343248 L7.73283433,101.346005 C7.73283433,99.699589 8.35520746,98.2020451 9.3718791,97.0623459 C3.51538657,89.9010426 -0.000165671642,80.7564311 -0.000165671642,70.7902657 L-0.000165671642,94.2249524 L-0.000165671642,94.8921203 L-0.000165671642,117.71202 C-0.000165671642,128.086757 5.2008194,137.266105 13.1309687,142.80415 C17.2959537,144.920892 22.0021328,146.122346 26.9866403,146.122346 C43.8906701,146.122346 57.6430731,132.391368 57.6430731,115.513123 L57.6430731,109.181644 L57.6430731,32.3988872 L57.6430731,28.7410426 C64.483103,27.0874586 69.5797149,20.9263559 69.5797149,13.5963308 C69.5797149,8.68685714 67.2923418,4.30284712 63.7276403,1.44394987" id="Fill-12" fill="#D7D8DA" mask="url(#mask-6)"></path>
                        </g>
                        <path d="M57.9850746,160 L57.9850746,0" id="Stroke-15" stroke="#FEFEFE"></path>
                        <path d="M59.0895522,160 L59.0895522,151.111111" id="Stroke-17" stroke="#FEFEFE"></path>
                    </g>
                </g>
            </g>
        </g>
    </g>
</svg>