<svg id="Layer_1" xmlns="http://www.w3.org/2000/svg" viewBox="0 0 21 21"><style>.st0{enable-background:new}.st1{fill:#fff}</style><g class="st0"><path class="st1" d="M20.7 18.1c0 1.4-1.2 2.6-2.6 2.6H2.8c-1.4 0-2.6-1.2-2.6-2.6V2.8C.2 1.4 1.4.2 2.8.2h15.3c1.4 0 2.6 1.2 2.6 2.6v15.3zm-2.3-9.3h-1.8c.2.5.3 1.2.3 1.8 0 3.4-2.9 6.2-6.4 6.2-3.5 0-6.4-2.8-6.4-6.2 0-.6.1-1.2.3-1.8H2.5v8.7c0 .5.4.8.8.8h14.3c.5 0 .8-.4.8-.8V8.8zm-7.9-2.4c-2.3 0-4.1 1.8-4.1 4s1.8 4 4.1 4 4.1-1.8 4.1-4-1.8-4-4.1-4zm7.9-3c0-.5-.4-.9-.9-.9h-2.3c-.5 0-.9.4-.9.9v2.2c0 .5.4.9.9.9h2.3c.5 0 .9-.4.9-.9V3.4z"/></g></svg>