<svg id="Layer_1" xmlns="http://www.w3.org/2000/svg" viewBox="0 0 24 18"><style>.st0{enable-background:new}.st1{fill:#fff}</style><g class="st0"><path class="st1" d="M24 15.2c-.3 1.3-1.3 2.3-2.6 2.4-3 .3-6 .3-9 .3s-6 0-9-.3c-1.3-.1-2.3-1.1-2.6-2.4-.4-1.9-.4-3.9-.4-5.8s0-4 .4-5.8c.3-1.3 1.3-2.3 2.6-2.4 3-.3 6-.3 9-.3s6 0 9 .3c1.3.1 2.3 1.1 2.6 2.4.4 1.9.4 3.9.4 5.8s.1 4-.4 5.8zm-6.8-6.5l-6.9-4.3c-.3-.2-.6-.2-.9 0-.2.1-.4.4-.4.7v8.6c0 .3.2.6.4.8.1.1.3.1.4.1.2 0 .3 0 .5-.1l6.9-4.3c.3-.1.4-.4.4-.7s-.1-.7-.4-.8z"/></g></svg>