<svg id="Layer_1" xmlns="http://www.w3.org/2000/svg" viewBox="0 0 22 18"><style>.st0{enable-background:new}.st1{fill:#fff}</style><g class="st0"><path class="st1" d="M19.5 5.1v.6c0 5.7-4.4 12.3-12.3 12.3-2.5 0-4.7-.7-6.6-1.9.3 0 .7.1 1 .1 2 0 3.9-.7 5.4-1.8-1.9 0-3.5-1.3-4-3 .3 0 .5.1.8.1.4 0 .8-.1 1.1-.1-2-.4-3.5-2.1-3.5-4.2v-.1c.6.3 1.2.5 2 .5-1.2-.9-1.9-2.3-1.9-3.8 0-.8.2-1.5.6-2.2C4.2 4.3 7.4 6 11 6.2c-.1-.3-.1-.7-.1-1 0-2.4 1.9-4.3 4.3-4.3 1.2 0 2.4.5 3.2 1.4 1-.2 1.9-.5 2.7-1-.3 1-1 1.8-1.9 2.4.9-.1 1.7-.3 2.5-.7-.6.7-1.3 1.5-2.2 2.1z"/></g></svg>